<svg class="svg-icon" style="width: 1em; height: 1em;vertical-align: middle;fill: currentColor;overflow: hidden;" viewBox="0 0 1024 1024" version="1.1" xmlns="http://www.w3.org/2000/svg"><path d="M128 512c49.408 0 93.952-19.2 128-49.792V768h512V462.208C801.984 492.8 846.656 512 896 512v384H128V512zM896 0l128 320c0 70.656-57.344 128-128 128s-128-57.344-128-128c0 70.656-57.344 128-128 128s-128-57.344-128-128c0 70.656-57.344 128-128 128s-128-57.344-128-128c0 70.656-57.344 128-128 128s-128-57.344-128-128L128 0h768zM64 1024v-64h896v64H64z"  /></svg>